<svg xmlns="http://www.w3.org/2000/svg" xmlns:xlink="http://www.w3.org/1999/xlink" width="150" height="150" viewBox="0 0 150 150">
  <defs>
    <clipPath id="clip-path">
      <rect id="Rectangle_456312" data-name="Rectangle 456312" width="150" height="150" fill="none"/>
    </clipPath>
  </defs>
  <g id="img28" transform="translate(-307.059 -10093)">
    <g id="Group_1179968" data-name="Group 1179968" transform="translate(-115 658)">
      <g id="Group_1179959" data-name="Group 1179959" transform="translate(422.059 9435)" clip-path="url(#clip-path)">
        <path id="Path_999654" data-name="Path 999654" d="M1.5,5.146H123.437A18.479,18.479,0,0,1,141.96,23.58V144.937H20.022A18.479,18.479,0,0,1,1.5,126.5Z" transform="translate(0.815 2.76)" fill="#fff"/>
      </g>
      <g id="Group_1179960" data-name="Group 1179960" transform="translate(422.059 9435)">
        <g id="Group_1179956" data-name="Group 1179956" clip-path="url(#clip-path)">
          <path id="Path_999651" data-name="Path 999651" d="M94.9,30a7.681,7.681,0,1,1-7.718,7.681A7.7,7.7,0,0,1,94.9,30" transform="translate(47.384 16.085)" fill="#19538d"/>
          <path id="Path_999652" data-name="Path 999652" d="M65.9,0a7.681,7.681,0,1,1-7.718,7.681A7.7,7.7,0,0,1,65.9,0" transform="translate(31.622 0)" fill="#19538d"/>
          <path id="Path_999653" data-name="Path 999653" d="M141.96,51.007v93.93H20.022A18.479,18.479,0,0,1,1.5,126.5V5.146H97.75" transform="translate(0.815 2.76)" fill="none" stroke="#19538d" stroke-miterlimit="10" stroke-width="4"/>
        </g>
      </g>
    </g>
    <g id="Group_1179969" data-name="Group 1179969" transform="translate(331.059 10121)">
      <rect id="Rectangle_456311" data-name="Rectangle 456311" width="98.042" height="98.75" transform="translate(-0.289)" fill="#fff"/>
      <g id="cartera" transform="translate(1.711)">
        <path id="Path_1032744" data-name="Path 1032744" d="M16,12h3.17v3.17H16Z" transform="translate(6.434 5.849)" fill="#19538d"/>
        <path id="Path_1032745" data-name="Path 1032745" d="M20,12h3.17v3.17H20Z" transform="translate(8.774 5.849)" fill="#19538d"/>
        <path id="Path_1032746" data-name="Path 1032746" d="M24,12h3.17v3.17H24Z" transform="translate(11.114 5.849)" fill="#19538d"/>
        <path id="Path_1032747" data-name="Path 1032747" d="M28,12h3.17v3.17H28Z" transform="translate(13.453 5.849)" fill="#19538d"/>
        <path id="Path_1032748" data-name="Path 1032748" d="M19,23h3.17v3.17H19Z" transform="translate(8.189 12.284)" fill="#19538d"/>
        <path id="Path_1032749" data-name="Path 1032749" d="M23,23h3.17v3.17H23Z" transform="translate(10.529 12.284)" fill="#19538d"/>
        <path id="Path_1032750" data-name="Path 1032750" d="M27,23h3.17v3.17H27Z" transform="translate(12.869 12.284)" fill="#19538d"/>
        <path id="Path_1032751" data-name="Path 1032751" d="M40,51H59.019v3.17H40Z" transform="translate(20.473 28.662)" fill="#19538d"/>
        <path id="Path_1032752" data-name="Path 1032752" d="M40,55H59.019v3.17H40Z" transform="translate(20.473 31.001)" fill="#19538d"/>
        <path id="Path_1032753" data-name="Path 1032753" d="M39.019,54.887V53.143a7.888,7.888,0,0,0,3.17-6.294V45.264a1.585,1.585,0,0,0,1.585-1.585V40.51a9.51,9.51,0,1,0-19.019,0v3.17a1.585,1.585,0,0,0,1.585,1.585v1.585a7.888,7.888,0,0,0,3.17,6.3v1.743A11.112,11.112,0,0,0,20,65.869v4.755a1.585,1.585,0,0,0,1.585,1.585H46.944a1.585,1.585,0,0,0,1.585-1.585V65.869a11.112,11.112,0,0,0-9.51-10.982ZM27.925,40.51a6.34,6.34,0,0,1,12.679,0v1.585h-.271a1.585,1.585,0,0,1-1.122-.464L36.97,39.389a1.585,1.585,0,0,0-2.241,0L33.415,40.7a4.782,4.782,0,0,1-3.362,1.393H27.925Zm2.129,4.755a7.874,7.874,0,0,0,5.6-2.322l.193-.192,1.121,1.121a4.723,4.723,0,0,0,2.049,1.187v1.791a4.755,4.755,0,0,1-9.51,0V45.264Zm4.211,9.51a7.924,7.924,0,0,0,1.585-.158V55.7l-1.585,1.585L32.679,55.7V54.616a7.924,7.924,0,0,0,1.585.158ZM45.359,69.038H23.17v-3.17A7.91,7.91,0,0,1,30.5,58l2.645,2.645a1.585,1.585,0,0,0,2.241,0L38.03,58a7.91,7.91,0,0,1,7.329,7.864Z" transform="translate(8.774 16.963)" fill="#19538d"/>
        <path id="Path_1032754" data-name="Path 1032754" d="M90.586,30.529A18.984,18.984,0,0,0,62.058,14.084V6.755A4.755,4.755,0,0,0,57.3,2H9.755A4.755,4.755,0,0,0,5,6.755V92.341A4.755,4.755,0,0,0,9.755,97.1H82.662a4.755,4.755,0,0,0,4.755-4.755V41.019A18.9,18.9,0,0,0,90.586,30.529Zm-3.17,0A15.849,15.849,0,1,1,71.567,14.679,15.849,15.849,0,0,1,87.417,30.529ZM74.737,74.907H68.4V62.227h6.34ZM68.4,55.888h6.34v3.17H68.4Zm1.585-3.17V49.467c.525.044,1.049.081,1.585.081s1.06-.036,1.585-.081v3.251ZM55.122,40.038h-31.1V35.284A1.585,1.585,0,0,1,25.6,33.7H52.835A18.84,18.84,0,0,0,55.122,40.038ZM44.178,5.17l-.792,3.17H23.672L22.88,5.17ZM8.17,92.341V6.755A1.585,1.585,0,0,1,9.755,5.17h9.857L20.6,9.107a3.17,3.17,0,0,0,3.076,2.4H43.385a3.17,3.17,0,0,0,3.077-2.4l.984-3.936H57.3a1.585,1.585,0,0,1,1.585,1.585v9.638a18.957,18.957,0,0,0-6.34,14.136H25.6a4.755,4.755,0,0,0-4.755,4.755V92.341a4.7,4.7,0,0,0,.292,1.585H9.755A1.585,1.585,0,0,1,8.17,92.341Zm74.492,1.585H25.6a1.585,1.585,0,0,1-1.585-1.585V43.208H57.431a19.019,19.019,0,0,0,9.381,5.714v3.8A1.585,1.585,0,0,0,65.227,54.3v20.6a3.17,3.17,0,0,0,3.17,3.17h6.34a3.17,3.17,0,0,0,3.17-3.17V54.3a1.585,1.585,0,0,0-1.585-1.585v-3.8a18.948,18.948,0,0,0,7.925-4.257V92.341A1.585,1.585,0,0,1,82.662,93.926Z" transform="translate(0 0)" fill="#19538d"/>
        <path id="Path_1032755" data-name="Path 1032755" d="M51.679,37.359A12.679,12.679,0,1,0,39,24.679,12.679,12.679,0,0,0,51.679,37.359Zm0-22.189a9.51,9.51,0,1,1-9.51,9.51A9.51,9.51,0,0,1,51.679,15.17Z" transform="translate(19.888 5.849)" fill="#19538d"/>
      </g>
    </g>
  </g>
</svg>
