<svg xmlns="http://www.w3.org/2000/svg" xmlns:xlink="http://www.w3.org/1999/xlink" width="69.323" height="69.323" viewBox="0 0 69.323 69.323">
  <defs>
    <clipPath id="clip-path">
      <rect id="Rectangle_462374" data-name="Rectangle 462374" width="42.515" height="42.5" fill="#fff"/>
    </clipPath>
  </defs>
  <g id="img9" transform="translate(-918.711 -2643)">
    <rect id="Rectangle_462059" data-name="Rectangle 462059" width="69.323" height="69.323" transform="translate(918.711 2643)" fill="#0f654d"/>
    <g id="Group_1212661" data-name="Group 1212661" transform="translate(931.711 2656)">
      <g id="Group_1212660" data-name="Group 1212660" clip-path="url(#clip-path)">
        <path id="Path_1277989" data-name="Path 1277989" d="M117.888,93.749l-.006,12.044a1.814,1.814,0,0,1-1.649,1.821l-13.361,0a1.843,1.843,0,0,1-1.656-1.947V89.144a1.9,1.9,0,0,1,2.038-1.861l8.148.019v5.624a.957.957,0,0,0,.873.826Zm-7.3,2.788c.462,0,.8-.564.829-.863s-.269-.947-.66-.947h-6.09c-.5,0-.71.7-.634,1.06a1.007,1.007,0,0,0,1,.764Zm-.07,3.7a.921.921,0,1,0-.128-1.836l-5.488.008a.909.909,0,0,0-.883.843.868.868,0,0,0,.766.973Zm0,3.7a.94.94,0,0,0,.9-1,.969.969,0,0,0-.887-.841H104.9a.925.925,0,1,0,.134,1.845Z" transform="translate(-88.336 -76.176)" fill="#fff"/>
        <path id="Path_1277990" data-name="Path 1277990" d="M31.6,74.353c.207,1.3,1.382,1.681,2.616,1.453a21.277,21.277,0,0,1-29.4-30.379L3.3,43.915l6.454-.731-.726,6.455L7.691,48.318A17.217,17.217,0,0,0,31.669,72.656a6.73,6.73,0,0,0-.074,1.7" transform="translate(0 -37.689)" fill="#fff"/>
        <path id="Path_1277991" data-name="Path 1277991" d="M97.462,29.924l1.24,1.234A17.219,17.219,0,0,0,74.858,7.051L74.95,5.8a2.021,2.021,0,0,0-.564-1.6,2.425,2.425,0,0,0-1.768-.528,21.315,21.315,0,0,1,29.026,30.413l1.564,1.6L96.76,36.4Z" transform="translate(-63.378 0)" fill="#fff"/>
        <path id="Path_1277992" data-name="Path 1277992" d="M199.489,98.689l-3.679.023.029-3.667Z" transform="translate(-170.893 -82.951)" fill="#fff"/>
      </g>
    </g>
  </g>
</svg>
